<?xml version="1.0" standalone="no"?>
<svg xmlns:xlink="http://www.w3.org/1999/xlink" id="wave" style="transform:rotate(0deg); transition: 0.3s" viewBox="0 0 1440 490" version="1.1" xmlns="http://www.w3.org/2000/svg"><defs><linearGradient id="sw-gradient-0" x1="0" x2="0" y1="1" y2="0"><stop stop-color="rgba(243, 106, 62, 1)" offset="0%"/><stop stop-color="rgba(255, 179, 11, 1)" offset="100%"/></linearGradient></defs><path style="transform:translate(0, 0px); opacity:1" fill="url(#sw-gradient-0)" d="M0,147L48,122.5C96,98,192,49,288,24.5C384,0,480,0,576,16.3C672,33,768,65,864,81.7C960,98,1056,98,1152,81.7C1248,65,1344,33,1440,49C1536,65,1632,131,1728,130.7C1824,131,1920,65,2016,106.2C2112,147,2208,294,2304,343C2400,392,2496,343,2592,269.5C2688,196,2784,98,2880,73.5C2976,49,3072,98,3168,114.3C3264,131,3360,114,3456,155.2C3552,196,3648,294,3744,294C3840,294,3936,196,4032,130.7C4128,65,4224,33,4320,49C4416,65,4512,131,4608,171.5C4704,212,4800,229,4896,261.3C4992,294,5088,343,5184,326.7C5280,310,5376,229,5472,163.3C5568,98,5664,49,5760,49C5856,49,5952,98,6048,138.8C6144,180,6240,212,6336,204.2C6432,196,6528,147,6624,138.8C6720,131,6816,163,6864,179.7L6912,196L6912,490L6864,490C6816,490,6720,490,6624,490C6528,490,6432,490,6336,490C6240,490,6144,490,6048,490C5952,490,5856,490,5760,490C5664,490,5568,490,5472,490C5376,490,5280,490,5184,490C5088,490,4992,490,4896,490C4800,490,4704,490,4608,490C4512,490,4416,490,4320,490C4224,490,4128,490,4032,490C3936,490,3840,490,3744,490C3648,490,3552,490,3456,490C3360,490,3264,490,3168,490C3072,490,2976,490,2880,490C2784,490,2688,490,2592,490C2496,490,2400,490,2304,490C2208,490,2112,490,2016,490C1920,490,1824,490,1728,490C1632,490,1536,490,1440,490C1344,490,1248,490,1152,490C1056,490,960,490,864,490C768,490,672,490,576,490C480,490,384,490,288,490C192,490,96,490,48,490L0,490Z"/></svg>